<?xml version="1.0" standalone="no"?>
<!DOCTYPE svg PUBLIC "-//W3C//DTD SVG 20010904//EN"
 "http://www.w3.org/TR/2001/REC-SVG-20010904/DTD/svg10.dtd">
<svg version="1.0" xmlns="http://www.w3.org/2000/svg"
 width="256.000000pt" height="256.000000pt" viewBox="0 0 256.000000 256.000000"
 preserveAspectRatio="xMidYMid meet">
<metadata>
Created by potrace 1.14, written by Peter Selinger 2001-2017
</metadata>
<g transform="translate(0.000000,256.000000) scale(0.100000,-0.100000)"
fill="#000000" stroke="none">
<path d="M760 2368 c-129 -35 -204 -264 -176 -542 l6 -68 -63 -67 c-102 -108
-148 -233 -141 -379 4 -92 18 -143 54 -208 l29 -52 -29 -74 c-61 -158 -59
-321 6 -475 l35 -82 -19 -38 c-40 -80 -57 -222 -38 -335 l7 -48 71 0 71 0 -9
42 c-10 54 -10 161 -1 213 4 22 23 69 41 105 37 73 36 90 -8 154 -42 62 -64
149 -61 236 5 107 12 135 56 227 42 88 42 109 1 146 -11 10 -31 42 -43 70 -19
42 -24 69 -23 142 0 114 25 183 95 260 70 76 140 109 238 111 42 1 79 3 83 3
4 1 19 23 32 49 61 121 226 204 357 180 111 -20 223 -97 262 -180 10 -20 23
-40 29 -44 6 -4 46 -8 87 -9 90 -2 150 -27 215 -89 98 -94 141 -235 111 -370
-7 -35 -51 -122 -65 -131 -6 -4 -16 -18 -21 -32 -8 -21 -4 -36 17 -76 53 -102
68 -165 68 -277 0 -83 -21 -156 -59 -212 -46 -67 -47 -81 -16 -145 16 -32 34
-73 41 -91 14 -37 17 -186 5 -245 l-8 -37 67 0 c62 0 67 2 76 26 28 73 11 266
-31 356 l-22 48 26 48 c31 58 54 144 60 224 7 98 -25 264 -63 325 -10 16 -8
28 12 69 45 89 58 145 58 249 0 61 -7 97 -37 200 -12 38 -55 100 -110 157 -51
51 -55 59 -49 90 3 19 6 81 7 138 1 306 -122 495 -282 432 -73 -29 -129 -140
-164 -325 -4 -18 -11 -27 -18 -23 -111 49 -148 59 -222 62 -85 3 -148 -9 -227
-44 -53 -23 -51 -26 -63 57 -30 193 -138 311 -255 279z m83 -191 c34 -73 40
-101 52 -241 5 -64 -7 -92 -40 -90 -11 0 -46 -4 -77 -11 -56 -11 -56 -11 -61
13 -9 46 2 207 18 266 20 74 51 127 70 120 8 -3 25 -29 38 -57z m966 10 c11
-23 25 -64 31 -90 12 -57 20 -198 13 -243 -5 -31 -6 -31 -44 -23 -21 5 -57 11
-80 13 -23 2 -45 10 -50 18 -8 12 -5 99 5 173 13 97 64 209 91 199 8 -3 23
-25 34 -47z"/>
<path d="M1168 1365 c-176 -48 -282 -209 -239 -363 18 -64 99 -143 175 -171
74 -27 275 -32 345 -8 169 59 245 214 177 362 -30 66 -85 118 -166 157 -55 27
-77 31 -155 34 -50 1 -111 -4 -137 -11z m249 -105 c55 -23 117 -82 133 -126
26 -67 2 -139 -62 -187 -47 -36 -98 -47 -213 -47 -115 0 -180 23 -228 79 -111
132 44 320 253 308 38 -2 87 -14 117 -27z"/>
<path d="M1218 1159 c-25 -14 -22 -42 7 -67 19 -17 23 -28 19 -50 -8 -38 17
-59 54 -46 24 8 26 14 24 46 -3 28 1 39 16 47 44 24 25 91 -22 76 -27 -9 -47
-9 -66 -2 -8 4 -23 2 -32 -4z"/>
<path d="M820 1363 c-40 -12 -60 -29 -75 -65 -13 -34 -13 -43 -1 -73 13 -31
36 -46 81 -50 22 -3 66 31 80 62 26 55 -1 108 -65 129 -3 1 -12 -1 -20 -3z"/>
<path d="M1702 1353 c-50 -24 -62 -88 -24 -139 26 -35 55 -44 97 -33 27 8 40
19 50 43 35 82 -46 166 -123 129z"/>
</g>
</svg>
